{
    "asset" : {
        "generator" : "Khronos glTF Blender I/O v1.7.33",
        "version" : "2.0"
    },
    "scene" : 0,
    "scenes" : [
        {
            "name" : "Scene",
            "nodes" : [
                1
            ]
        }
    ],
    "nodes" : [
        {
            "mesh" : 0,
            "name" : "Screen",
            "translation" : [
                -2.4274224415421486e-05,
                0.002438108203932643,
                -0.0334341824054718
            ]
        },
        {
            "children" : [
                0
            ],
            "mesh" : 1,
            "name" : "Base"
        }
    ],
    "materials" : [
        {
            "doubleSided" : true,
            "name" : "New",
            "normalTexture" : {
                "index" : 0,
                "scale" : 2
            },
            "pbrMetallicRoughness" : {
                "baseColorTexture" : {
                    "index" : 1
                },
                "metallicRoughnessTexture" : {
                    "index" : 2
                }
            }
        }
    ],
    "meshes" : [
        {
            "name" : "Plane.001",
            "primitives" : [
                {
                    "attributes" : {
                        "POSITION" : 0,
                        "NORMAL" : 1,
                        "TEXCOORD_0" : 2
                    },
                    "indices" : 3,
                    "material" : 0
                }
            ]
        },
        {
            "name" : "Plane.003",
            "primitives" : [
                {
                    "attributes" : {
                        "POSITION" : 4,
                        "NORMAL" : 5,
                        "TEXCOORD_0" : 6
                    },
                    "indices" : 7,
                    "material" : 0
                }
            ]
        }
    ],
    "textures" : [
        {
            "sampler" : 0,
            "source" : 0
        },
        {
            "sampler" : 0,
            "source" : 1
        },
        {
            "sampler" : 0,
            "source" : 2
        }
    ],
    "images" : [
        {
            "bufferView" : 4,
            "mimeType" : "image/png",
            "name" : "New_Normal"
        },
        {
            "bufferView" : 5,
            "mimeType" : "image/png",
            "name" : "New_Albedo"
        },
        {
            "bufferView" : 6,
            "mimeType" : "image/png",
            "name" : "New_Metalness-New_Roughness"
        }
    ],
    "accessors" : [
        {
            "bufferView" : 0,
            "componentType" : 5126,
            "count" : 366,
            "max" : [
                0.15999475121498108,
                0.1970817744731903,
                0.002537640742957592
            ],
            "min" : [
                -0.15995322167873383,
                -0.0029874686151742935,
                -0.012526807375252247
            ],
            "type" : "VEC3"
        },
        {
            "bufferView" : 1,
            "componentType" : 5126,
            "count" : 366,
            "type" : "VEC3"
        },
        {
            "bufferView" : 2,
            "componentType" : 5126,
            "count" : 366,
            "type" : "VEC2"
        },
        {
            "bufferView" : 3,
            "componentType" : 5123,
            "count" : 1380,
            "type" : "SCALAR"
        },
        {
            "bufferView" : 7,
            "componentType" : 5126,
            "count" : 260,
            "max" : [
                0.1599704772233963,
                0.005450651049613953,
                0.16267728805541992
            ],
            "min" : [
                -0.1599774956703186,
                -0.010561734437942505,
                -0.03693592548370361
            ],
            "type" : "VEC3"
        },
        {
            "bufferView" : 8,
            "componentType" : 5126,
            "count" : 260,
            "type" : "VEC3"
        },
        {
            "bufferView" : 9,
            "componentType" : 5126,
            "count" : 260,
            "type" : "VEC2"
        },
        {
            "bufferView" : 10,
            "componentType" : 5123,
            "count" : 960,
            "type" : "SCALAR"
        }
    ],
    "bufferViews" : [
        {
            "buffer" : 0,
            "byteLength" : 4392,
            "byteOffset" : 0
        },
        {
            "buffer" : 0,
            "byteLength" : 4392,
            "byteOffset" : 4392
        },
        {
            "buffer" : 0,
            "byteLength" : 2928,
            "byteOffset" : 8784
        },
        {
            "buffer" : 0,
            "byteLength" : 2760,
            "byteOffset" : 11712
        },
        {
            "buffer" : 0,
            "byteLength" : 387737,
            "byteOffset" : 14472
        },
        {
            "buffer" : 0,
            "byteLength" : 130326,
            "byteOffset" : 402212
        },
        {
            "buffer" : 0,
            "byteLength" : 74334,
            "byteOffset" : 532540
        },
        {
            "buffer" : 0,
            "byteLength" : 3120,
            "byteOffset" : 606876
        },
        {
            "buffer" : 0,
            "byteLength" : 3120,
            "byteOffset" : 609996
        },
        {
            "buffer" : 0,
            "byteLength" : 2080,
            "byteOffset" : 613116
        },
        {
            "buffer" : 0,
            "byteLength" : 1920,
            "byteOffset" : 615196
        }
    ],
    "samplers" : [
        {
            "magFilter" : 9729,
            "minFilter" : 9987
        }
    ],
    "buffers" : [
        {
            "byteLength" : 617116,
            "uri" : "data:application/octet-stream;base64,"
        }
    ]
}
